<svg xmlns:dc="http://purl.org/dc/elements/1.1/" xmlns:cc="http://creativecommons.org/ns#" xmlns:rdf="http://www.w3.org/1999/02/22-rdf-syntax-ns#" xmlns:svg="http://www.w3.org/2000/svg" xmlns="http://www.w3.org/2000/svg" xmlns:sodipodi="http://sodipodi.sourceforge.net/DTD/sodipodi-0.dtd" xmlns:inkscape="http://www.inkscape.org/namespaces/inkscape" width="60mm" height="80mm" viewBox="0 0 60 80" version="1.1" id="svg854" inkscape:version="1.0.2-2 (e86c870879, 2021-01-15)" sodipodi:docname="BrSTU Rus.svg" class="">
  <defs id="defs848" class=""/>
  <sodipodi:namedview id="base" pagecolor="#ffffff" bordercolor="#666666" borderopacity="1.0" inkscape:pageopacity="0.0" inkscape:pageshadow="2" inkscape:zoom="1.979899" inkscape:cx="111.17476" inkscape:cy="173.92017" inkscape:document-units="mm" inkscape:current-layer="layer1" inkscape:document-rotation="0" showgrid="false" inkscape:window-width="1423" inkscape:window-height="914" inkscape:window-x="26" inkscape:window-y="26" inkscape:window-maximized="0" class=""/>
  <metadata id="metadata851">
    <rdf:RDF>
      <cc:Work rdf:about="">
        <dc:format>image/svg+xml</dc:format>
        <dc:type rdf:resource="http://purl.org/dc/dcmitype/StillImage"/>
        <dc:title/>
      </cc:Work>
    </rdf:RDF>
  </metadata>
  <g inkscape:label="Слой 1" inkscape:groupmode="layer" id="layer1">
    <path d="m 13.351528,52.047071 h -0.258895 c -0.345149,0 -0.625792,0.01807 -0.842856,0.05323 v 4.841558 c 1.281615,0.100277 2.122355,-0.0558 2.521876,-0.467704 0.398939,-0.411824 0.598884,-1.066033 0.598884,-1.96215 0,-1.643327 -0.673364,-2.464938 -2.019009,-2.464938 z m 8.697913,-1.587526 v 0 c -0.222144,0 -0.438679,0.06773 -0.64852,0.203094 -0.210318,0.135387 -0.382429,0.328665 -0.5157,0.578776 -0.13335,0.250137 -0.199972,0.530701 -0.199972,0.841348 v 2.980664 c 0,0.720884 0.104854,1.252643 0.315225,1.595755 0.209788,0.343138 0.534828,0.514217 0.975095,0.514217 0.454792,0 0.802031,-0.28268 1.041823,-0.849074 0.239766,-0.565891 0.359622,-1.374087 0.359622,-2.424165 0,-1.167368 -0.107474,-2.032424 -0.322421,-2.595669 -0.215027,-0.563245 -0.55036,-0.844946 -1.005152,-0.844946 z m 36.889054,-12.34395 v 0 c -2.408422,-1.321965 -3.887867,-3.352589 -4.120144,-6.447314 0.08707,-4.239657 2.07428,-5.882323 3.945228,-6.817783 0,-1.757098 0,-14.780393 -0.01447,-16.9074048 V 7.798419 c 0,-0.1128712 0,-0.1618456 0,-0.1618456 l -0.01447,0.016642 C 58.58996,4.494223 56.09396,2.3982732 50.031033,2.5111445 42.763537,3.0112334 37.845939,4.1870153 30.447474,8.0403011 40.631366,4.5258671 49.567747,4.0098767 52.816381,6.0737061 c 1.000945,0.7252494 1.552125,1.8858177 1.654122,3.3523502 h -6.614557 c -0.711808,0 -1.291934,0.3058583 -1.291934,0.6928647 v 1.950825 h -4.120118 v -1.950825 c 0,-0.3870064 -0.580072,-0.6928647 -1.276429,-0.6928647 h -6.788177 c -0.711067,0 -1.29114,0.3058583 -1.29114,0.6928647 v 1.950825 h -4.105486 v -1.950825 c 0,-0.3870064 -0.580734,-0.6928647 -1.291643,-0.6928647 h -6.759152 c -0.710565,0 -1.290902,0.3058583 -1.290902,0.6928647 v 4.545594 l 2.858082,3.997061 -0.203623,15.182691 C 18.20478,34.698977 14.143241,34.731521 10.531467,33.489434 1.0731416,29.299572 12.562091,17.95281 18.277461,13.439018 2.5381131,22.062133 -7.9202574,39.227532 14.056167,37.729197 c 2.175959,-0.226139 4.192111,-0.531839 6.07777,-0.918977 0.0291,-0.01659 0.05813,-0.01659 0.08736,-0.03233 1.958023,-0.451194 3.901811,-0.966444 5.802075,-1.579483 0.68191,-0.54827 1.175411,-1.402371 1.638829,-2.063565 -0.710989,-0.595207 -1.478995,-1.950138 0.08784,-4.206611 1.377818,-1.933416 1.523392,-2.659485 2.190221,-5.190198 0.493792,1.015947 0.783431,3.611536 0.812403,4.70654 0.202777,2.981987 -1.131226,4.852114 -2.480336,4.852114 -0.319352,0.483447 -0.595657,0.982795 -0.958427,1.482223 1.116833,-0.386398 2.220516,-0.789279 3.293481,-1.24124 l 0.55192,-1.385861 c -0.159887,-0.128085 -0.246962,-0.338164 -0.218096,-0.579887 0.05821,-0.370496 0.362771,-0.677096 0.696595,-0.661353 0.333613,0 0.565362,0.307208 0.522235,0.677095 -0.05813,0.354754 -0.348086,0.645451 -0.66765,0.661353 l -0.420158,1.111647 c 0.60878,-0.257625 1.2183,-0.530913 1.813348,-0.806027 0.362479,-0.530913 0.725038,-1.128077 1.044602,-1.739768 -0.682123,-0.467704 -1.320298,-1.467141 -0.05813,-3.481943 1.189355,-1.918282 1.261216,-2.740818 1.754928,-5.158502 0.507974,0.918978 0.928132,3.337428 1.03042,4.352687 0.07186,2.610618 -0.913871,3.964649 -2.176119,4.335912 -0.232489,0.434684 -0.479028,0.870744 -0.769196,1.304555 1.1607,-0.563324 2.277374,-1.159801 3.351,-1.788768 l 0.507974,-1.337628 c -0.159676,-0.09636 -0.261752,-0.29001 -0.232278,-0.531733 0.0576,-0.322342 0.333296,-0.579967 0.623703,-0.579967 0.289956,0 0.492971,0.2735 0.449103,0.595868 -0.04321,0.290539 -0.260482,0.532342 -0.507232,0.579888 L 37.5274,30.105442 c 0.595048,-0.354753 1.189355,-0.72599 1.754928,-1.096645 0.464026,-0.676354 0.899398,-1.48164 1.262168,-2.304838 -0.623464,-0.467016 -1.189355,-1.692355 -0.01447,-3.803465 1.029679,-1.934924 1.059153,-2.481739 1.203007,-4.851294 0.55245,0.837512 1.102572,3.158834 1.262777,4.125224 0.334036,2.644431 -0.566393,4.19145 -1.914604,4.610312 -0.188622,0.499957 -0.42045,0.998643 -0.682202,1.450499 1.116753,-0.789279 2.19038,-1.627638 3.206327,-2.513383 l 0.36277,-1.499632 c -0.159676,-0.06472 -0.262043,-0.258233 -0.232569,-0.467625 0.04395,-0.258445 0.261514,-0.467095 0.507974,-0.467095 0.247041,0 0.406717,0.225372 0.362479,0.483738 -0.02918,0.209417 -0.158618,0.370496 -0.319352,0.450982 l -0.202803,1.079553 c 0.435371,-0.403119 0.870003,-0.806027 1.291643,-1.224915 0.246221,-0.59563 0.434631,-1.24034 0.579834,-1.902434 -0.696595,-0.160416 -1.059154,-0.933899 -0.595048,-2.900468 0.536919,-1.708124 0.47924,-2.0955 0.36277,-3.997219 0.595048,0.547661 1.291643,1.547098 1.683068,2.932959 0.565573,1.886029 0.02895,3.497686 -1.044893,3.933217 -0.04313,0.370496 -0.145203,0.774091 -0.276225,1.208775 0.84209,-0.886486 1.654202,-1.821286 2.393924,-2.80416 l 0.217805,-1.547707 c -0.173858,-0.06414 -0.275405,-0.241194 -0.24646,-0.467016 0.04313,-0.258392 0.260932,-0.467042 0.507154,-0.467042 0.232568,0 0.406505,0.225319 0.362558,0.482944 -0.02873,0.19349 -0.159676,0.370496 -0.317791,0.435372 l -0.146314,1.047591 c 0.449632,-0.612378 0.885216,-1.24124 1.291722,-1.886691 -0.377031,-0.53176 -0.754274,-1.401763 -0.02947,-2.691077 0.972,-1.450737 1.015206,-1.934263 1.465501,-3.78714 0.420449,0.901647 0.768747,2.578946 0.826876,3.368251 0.02895,1.788822 -0.697363,3.304144 -2.001679,3.287554 -0.334645,0.53258 -0.667729,1.06434 -1.029679,1.58033 l 0.55036,-0.06414 c 0.05842,-0.226563 0.261223,-0.387059 0.479319,-0.387059 0.24675,0 0.406665,0.225214 0.36277,0.499348 -0.02976,0.257625 -0.261514,0.467704 -0.493792,0.467704 -0.159676,0 -0.289877,-0.09721 -0.348297,-0.241882 l -0.797931,0.0957 c -0.6663,0.95205 -1.392369,1.87034 -2.145823,2.740792 0.361209,0.04831 0.72554,0.06472 1.086749,0.04831 0.116258,-0.692944 0.392774,-1.354296 2.089574,-1.676638 1.377897,-0.04815 1.856475,-0.370496 3.364362,-1.176364 -0.448813,1.193006 -1.377156,2.659486 -2.102194,3.191245 -1.50921,1.112468 -2.829296,0.870585 -3.351742,0.01656 -0.463576,0.07967 -1.000416,0.112898 -1.508469,0.07967 -0.521414,0.580708 -1.059074,1.145699 -1.624647,1.693334 l 0.827325,0.09623 c 0.08655,-0.176848 0.260694,-0.322951 0.449316,-0.3057 0.246459,0 0.405685,0.209471 0.377772,0.482865 -0.04395,0.274108 -0.261514,0.483526 -0.508794,0.483526 -0.173619,0 -0.303821,-0.128773 -0.347477,-0.290036 L 44.60599,25.511846 c -1.029388,0.999358 -2.117408,1.916774 -3.250142,2.804028 0.436139,0.11295 0.842037,0.193569 1.335828,0.274187 0.36248,-0.838358 0.85524,-1.56374 3.118433,-0.950621 1.668594,0.74123 2.364448,0.62828 4.424547,0.530992 -0.754803,1.016106 -2.523384,2.063697 -3.539622,2.256526 -2.263643,0.403119 -3.437784,-0.289878 -3.945969,-1.304555 -0.725329,-0.08123 -1.362763,-0.194178 -1.972284,-0.371237 -0.682863,0.499428 -1.363715,0.983033 -2.07428,1.434756 l 0.782637,0.161237 c 0.116549,-0.210079 0.319643,-0.354753 0.536707,-0.338852 0.29009,0 0.494004,0.274135 0.450295,0.595736 -0.0444,0.323162 -0.319352,0.580655 -0.624232,0.580655 -0.260403,0 -0.449024,-0.209418 -0.449024,-0.482785 l -1.14644,-0.226722 c -1.10228,0.709507 -2.234247,1.370859 -3.394895,1.983211 0.334804,0.257625 0.667147,0.483526 1.015947,0.676434 0.450083,-0.837671 1.087517,-1.514766 3.307292,-0.870082 1.711801,0.821795 2.451523,0.693023 4.641823,0.596476 -1.000733,1.128395 -2.480177,1.966648 -3.974703,2.288328 -2.291318,0.484214 -3.71295,-0.257704 -4.104375,-1.482963 -0.537448,-0.208729 -1.059894,-0.515329 -1.552866,-0.870082 -0.609309,0.323109 -1.247484,0.628888 -1.885209,0.918898 l 0.85553,0.30644 c 0.144674,-0.161078 0.333296,-0.274108 0.535861,-0.274108 0.334142,0.0159 0.565891,0.305911 0.522472,0.692997 -0.0576,0.370496 -0.376951,0.660532 -0.710035,0.660532 -0.333825,-0.0159 -0.566103,-0.322368 -0.507445,-0.692864 0,0 0,-0.0159 0,-0.0318 l -1.189884,-0.419471 c -1.262168,0.564145 -2.552991,1.080162 -3.858974,1.563608 0.420158,0.322501 0.856191,0.611611 1.277091,0.854102 0.710194,-0.822457 1.65354,-1.611842 3.872573,0.112263 1.566519,1.580118 2.350188,1.741355 4.61391,2.547223 -1.059153,0.531389 -3.569546,0.805365 -4.61391,0.822245 -2.901156,0.160497 -4.148798,-1.612212 -4.076197,-2.965741 -0.638995,-0.274108 -1.290902,-0.645451 -1.900952,-1.079394 -1.610095,0.563404 -3.234372,1.063493 -4.888044,1.498203 v 0.01656 c -0.434843,0.112871 -0.884688,0.225161 -1.349164,0.321522 -0.275563,0.06474 -0.5511,0.129619 -0.826664,0.193648 -0.01447,0 -0.01447,0 -0.01447,0 -5.381836,1.1448 -11.5322877,1.741805 -18.7418924,1.596311 -0.05752,5.511588 -0.44971228,10.620375 1.5229417,15.858754 2.1032257,5.576994 6.9630923,9.12323 11.6049167,11.701648 5.599271,2.643531 11.126231,5.110268 15.7539,9.606888 5.063013,-4.384198 9.820327,-6.737323 15.754032,-9.606888 4.714504,-2.61067 9.515475,-6.026997 11.604228,-11.701648 2.103543,-5.528019 1.654201,-11.346523 1.393216,-17.18085 z M 13.72467,57.967123 v 0 H 9.1533313 v -0.595365 c 0.3411008,-0.09967 0.558165,-0.248021 0.6521979,-0.445426 0.094059,-0.196877 0.1410759,-0.59272 0.1410759,-1.187027 v -7.607247 c 0,-0.605605 -0.045006,-1.003035 -0.1338792,-1.191128 -0.088874,-0.188119 -0.3089804,-0.338481 -0.6593946,-0.450082 v -0.595366 h 7.8258727 v 2.976616 H 15.95397 c -0.222753,-0.835131 -0.439208,-1.369431 -0.649579,-1.602 -0.210317,-0.232568 -0.537897,-0.349355 -0.983403,-0.349355 h -2.071211 v 4.116599 c 0.672835,-0.07649 1.243885,-0.11475 1.714129,-0.11475 1.24132,0 2.169901,0.282681 2.785878,0.847513 0.615976,0.565335 0.924004,1.462405 0.924004,2.692347 0,2.336774 -1.316699,3.504671 -3.949118,3.504671 z m 11.511148,-1.926537 v 0 c -0.259424,0.685271 -0.645451,1.199488 -1.15906,1.543129 -0.513663,0.344091 -1.14517,0.5157 -1.895475,0.5157 -0.508503,0 -1.007243,-0.07702 -1.496034,-0.22995 v 1.670712 c 0,0.441827 0.01958,0.753877 0.0594,0.936889 0.03924,0.182404 0.11004,0.326549 0.211349,0.432964 0.101256,0.105993 0.280062,0.194337 0.537475,0.265139 v 0.595339 h -3.686625 v -0.595339 c 0.232569,-0.08265 0.394256,-0.173619 0.485775,-0.273367 0.09096,-0.100727 0.15658,-0.240321 0.196347,-0.41955 0.03929,-0.180393 0.0594,-0.49358 0.0594,-0.941123 v -7.729193 c 0,-0.417513 -0.0041,-0.715195 -0.01132,-0.891964 -0.0073,-0.176715 -0.02484,-0.326548 -0.05167,-0.450611 -0.02738,-0.123508 -0.06564,-0.224764 -0.115279,-0.304351 -0.04958,-0.07956 -0.122476,-0.148881 -0.218546,-0.20775 -0.09615,-0.05887 -0.238284,-0.111602 -0.425873,-0.159147 v -0.595339 l 2.050071,-0.06615 h 0.909505 l -0.111151,1.287277 0.0889,0.02686 c 0.424259,-0.489373 0.820631,-0.841798 1.188587,-1.057275 0.367877,-0.215026 0.746707,-0.323029 1.136862,-0.323029 0.87847,0 1.537864,0.369014 1.977125,1.106937 0.439288,0.738002 0.659421,1.841262 0.659421,3.310414 0,1.017005 -0.129751,1.868117 -0.389175,2.552779 z m 7.936944,-6.804739 v 0 h -1.02526 c -0.268711,-1.058334 -0.507445,-1.708944 -0.717286,-1.951276 -0.209788,-0.242332 -0.506941,-0.363828 -0.892439,-0.363828 h -1.411711 v 8.811365 c 0,0.614945 0.05167,1.022721 0.155548,1.223195 0.103876,0.200978 0.350758,0.340043 0.741442,0.416455 v 0.595365 h -3.993435 v -0.595365 c 0.341021,-0.09967 0.558059,-0.248021 0.652118,-0.445426 0.09403,-0.196877 0.141076,-0.59526 0.141076,-1.195785 v -7.598489 c 0,-0.605605 -0.04493,-1.003035 -0.1338,-1.191128 -0.08895,-0.188119 -0.309086,-0.338481 -0.659394,-0.450082 v -0.595366 h 7.143141 z m 9.64266,-0.231458 v 0 h -1.025234 c -0.09353,-0.403648 -0.167481,-0.700273 -0.221191,-0.890402 -0.05429,-0.18968 -0.11475,-0.351446 -0.180896,-0.485246 -0.06615,-0.13335 -0.136419,-0.244951 -0.209762,-0.333825 -0.07387,-0.08887 -0.152479,-0.160205 -0.236167,-0.213968 -0.08371,-0.05318 -0.188648,-0.093 -0.313663,-0.119857 -0.125095,-0.02693 -0.288899,-0.04035 -0.490432,-0.04035 h -0.530701 v 8.815493 c 0,0.312155 0.0072,0.549301 0.0222,0.711597 0.015,0.162242 0.04239,0.293475 0.08168,0.393753 0.03924,0.100277 0.08784,0.180895 0.144674,0.24294 0.05686,0.06194 0.135917,0.118269 0.237226,0.167905 0.101256,0.05011 0.238204,0.08993 0.411321,0.119327 v 0.595365 H 36.40706 v -0.595365 c 0.207751,-0.04133 0.372084,-0.09554 0.492972,-0.163275 0.120994,-0.06765 0.211349,-0.163274 0.270827,-0.287311 0.05887,-0.123984 0.09607,-0.281622 0.111072,-0.473339 0.01447,-0.191162 0.0222,-0.428387 0.0222,-0.711597 v -8.815493 h -0.59526 c -0.294084,0 -0.519377,0.04186 -0.676513,0.124565 -0.15703,0.08319 -0.292946,0.213916 -0.407696,0.391742 -0.1152,0.178277 -0.214419,0.417513 -0.297683,0.717206 -0.08369,0.29972 -0.151871,0.583433 -0.205634,0.850133 h -1.025267 v -3.108905 h 8.719344 z m 9.752118,-2.513541 v 0 c -0.277495,0.0708 -0.523954,0.272309 -0.73951,0.604572 -0.216006,0.332238 -0.465058,0.818542 -0.74721,1.459336 l -2.47478,6.236335 c -0.450612,1.130697 -0.896038,1.976094 -1.336358,2.535238 -0.44024,0.559646 -1.0092,0.839232 -1.706853,0.839232 -0.391186,0 -0.856271,-0.08631 -1.395756,-0.257837 v -2.487242 h 1.091406 c 0.02477,0.772054 0.258895,1.157552 0.703289,1.157552 0.532791,0 1.019016,-0.542607 1.458304,-1.627796 L 44.824377,48.272605 C 44.561355,47.596726 44.352043,47.134711 44.195965,46.88767 44.039887,46.640681 43.842482,46.508389 43.604806,46.490848 v -0.595366 h 3.950626 v 0.595366 c -0.380312,0.05887 -0.570441,0.282151 -0.570441,0.66966 0,0.223282 0.131762,0.687837 0.395764,1.392687 l 1.277487,3.508349 1.224227,-3.428789 c 0.218546,-0.61079 0.32811,-1.092887 0.32811,-1.445842 0,-0.440319 -0.192749,-0.672359 -0.578247,-0.696065 v -0.595366 h 2.935208 z" style="fill:#006bb4;fill-rule:evenodd;stroke-width:0.264583" id="path4"/>
  </g>
</svg>